# xmcd
#
# Track frame offsets: 
#        150
#        22900
#        39758
#        54518
#        72825
#        94754
#        116082
#        134534
#        153222
#
# Disc length: 2252 seconds
#
# Revision: 3
# Processed by: cddbd v1.5.2PL0 Copyright (c) Steve Scherf et al.
# Submitted via: ExactAudioCopy v0.99pb4
#
DISCID=6b08ca09
DTITLE=Ko?n - Chopped, Screwed, Live and Unglued [CD 1]
DYEAR=2006
DGENRE=Remix
TTITLE0=Twisted Transistor (Remix)
TTITLE1=Hypocrites (Remix)
TTITLE2=Getting Off (Featuring DJ Michael "5000" Watts)
TTITLE3=Getting Off (Remix)
TTITLE4=For No One (Remix)
TTITLE5=Love Song (Remix)
TTITLE6=10 Or A 2-Way (Remix)
TTITLE7=Coming Undone (Remix)
TTITLE8=Coming Undone Wit It (Korn Vs. Dem Franchize Boyz)
EXTD=YEAR: 2006
EXTT0=
EXTT1=
EXTT2=
EXTT3=
EXTT4=
EXTT5=
EXTT6=
EXTT7=
EXTT8=
PLAYORDER=
